%TF.GenerationSoftware,KiCad,Pcbnew,(7.0.0-0)*%
%TF.CreationDate,2023-06-23T15:16:10+02:00*%
%TF.ProjectId,RCcar,52436361-722e-46b6-9963-61645f706362,rev?*%
%TF.SameCoordinates,Original*%
%TF.FileFunction,Soldermask,Top*%
%TF.FilePolarity,Negative*%
%FSLAX46Y46*%
G04 Gerber Fmt 4.6, Leading zero omitted, Abs format (unit mm)*
G04 Created by KiCad (PCBNEW (7.0.0-0)) date 2023-06-23 15:16:10*
%MOMM*%
%LPD*%
G01*
G04 APERTURE LIST*
G04 Aperture macros list*
%AMRoundRect*
0 Rectangle with rounded corners*
0 $1 Rounding radius*
0 $2 $3 $4 $5 $6 $7 $8 $9 X,Y pos of 4 corners*
0 Add a 4 corners polygon primitive as box body*
4,1,4,$2,$3,$4,$5,$6,$7,$8,$9,$2,$3,0*
0 Add four circle primitives for the rounded corners*
1,1,$1+$1,$2,$3*
1,1,$1+$1,$4,$5*
1,1,$1+$1,$6,$7*
1,1,$1+$1,$8,$9*
0 Add four rect primitives between the rounded corners*
20,1,$1+$1,$2,$3,$4,$5,0*
20,1,$1+$1,$4,$5,$6,$7,0*
20,1,$1+$1,$6,$7,$8,$9,0*
20,1,$1+$1,$8,$9,$2,$3,0*%
G04 Aperture macros list end*
%ADD10RoundRect,0.250000X0.625000X-0.400000X0.625000X0.400000X-0.625000X0.400000X-0.625000X-0.400000X0*%
%ADD11R,1.700000X1.700000*%
%ADD12O,1.700000X1.700000*%
%ADD13RoundRect,0.250001X-0.624999X0.462499X-0.624999X-0.462499X0.624999X-0.462499X0.624999X0.462499X0*%
%ADD14C,2.250000*%
%ADD15C,1.500000*%
%ADD16C,1.850000*%
%ADD17RoundRect,0.250000X-0.625000X0.400000X-0.625000X-0.400000X0.625000X-0.400000X0.625000X0.400000X0*%
%ADD18R,1.600000X1.600000*%
%ADD19O,1.600000X1.600000*%
%ADD20RoundRect,0.250000X0.400000X0.625000X-0.400000X0.625000X-0.400000X-0.625000X0.400000X-0.625000X0*%
%ADD21C,1.550000*%
G04 APERTURE END LIST*
D10*
%TO.C,R12*%
X68700000Y-75600000D03*
X68700000Y-72500000D03*
%TD*%
%TO.C,R15*%
X79600000Y-94800000D03*
X79600000Y-91700000D03*
%TD*%
D11*
%TO.C,J9*%
X37624999Y-73474999D03*
D12*
X37624999Y-76014999D03*
X35084999Y-73474999D03*
X35084999Y-76014999D03*
X32544999Y-73474999D03*
X32544999Y-76014999D03*
%TD*%
D11*
%TO.C,J4*%
X79699999Y-75249999D03*
D12*
X79699999Y-77789999D03*
X79699999Y-80329999D03*
X79699999Y-82869999D03*
%TD*%
D13*
%TO.C,D3*%
X79600000Y-86262500D03*
X79600000Y-89237500D03*
%TD*%
D14*
%TO.C,SW3*%
X51550000Y-96100000D03*
X56250000Y-96100000D03*
X60950000Y-96100000D03*
%TD*%
D10*
%TO.C,R1*%
X33200000Y-94800000D03*
X33200000Y-91700000D03*
%TD*%
D15*
%TO.C,Y1*%
X38800000Y-57900000D03*
X43680000Y-57900000D03*
%TD*%
D16*
%TO.C,J5*%
X37850000Y-93650000D03*
X42850000Y-93650000D03*
%TD*%
D17*
%TO.C,R5*%
X63900000Y-53900000D03*
X63900000Y-57000000D03*
%TD*%
%TO.C,R19*%
X57700000Y-56850000D03*
X57700000Y-59950000D03*
%TD*%
D13*
%TO.C,D1*%
X33200000Y-86262500D03*
X33200000Y-89237500D03*
%TD*%
D11*
%TO.C,J3*%
X32599999Y-50799999D03*
D12*
X35139999Y-50799999D03*
X37679999Y-50799999D03*
X40219999Y-50799999D03*
X42759999Y-50799999D03*
X45299999Y-50799999D03*
%TD*%
D17*
%TO.C,R18*%
X55150000Y-56850000D03*
X55150000Y-59950000D03*
%TD*%
%TO.C,R14*%
X72950000Y-72500000D03*
X72950000Y-75600000D03*
%TD*%
D11*
%TO.C,J6*%
X42789999Y-74749999D03*
D12*
X45329999Y-74749999D03*
X47869999Y-74749999D03*
X50409999Y-74749999D03*
X52949999Y-74749999D03*
X55489999Y-74749999D03*
X58029999Y-74749999D03*
%TD*%
D17*
%TO.C,R17*%
X52600000Y-56850000D03*
X52600000Y-59950000D03*
%TD*%
D10*
%TO.C,R4*%
X63900000Y-51650000D03*
X63900000Y-48550000D03*
%TD*%
D11*
%TO.C,J1*%
X50174999Y-51974999D03*
D12*
X50174999Y-49434999D03*
X52714999Y-51974999D03*
X52714999Y-49434999D03*
X55254999Y-51974999D03*
X55254999Y-49434999D03*
X57794999Y-51974999D03*
X57794999Y-49434999D03*
X60334999Y-51974999D03*
X60334999Y-49434999D03*
%TD*%
D18*
%TO.C,U2*%
X65299999Y-62399999D03*
D19*
X62759999Y-62399999D03*
X60219999Y-62399999D03*
X57679999Y-62399999D03*
X55139999Y-62399999D03*
X52599999Y-62399999D03*
X50059999Y-62399999D03*
X47519999Y-62399999D03*
X44979999Y-62399999D03*
X42439999Y-62399999D03*
X39899999Y-62399999D03*
X37359999Y-62399999D03*
X34819999Y-62399999D03*
X32279999Y-62399999D03*
X32279999Y-70019999D03*
X34819999Y-70019999D03*
X37359999Y-70019999D03*
X39899999Y-70019999D03*
X42439999Y-70019999D03*
X44979999Y-70019999D03*
X47519999Y-70019999D03*
X50059999Y-70019999D03*
X52599999Y-70019999D03*
X55139999Y-70019999D03*
X57679999Y-70019999D03*
X60219999Y-70019999D03*
X62759999Y-70019999D03*
X65299999Y-70019999D03*
%TD*%
D11*
%TO.C,J2*%
X79699999Y-70989999D03*
D12*
X79699999Y-68449999D03*
X79699999Y-65909999D03*
%TD*%
D16*
%TO.C,J7*%
X69650000Y-93650000D03*
X74650000Y-93650000D03*
%TD*%
D20*
%TO.C,R13*%
X63500000Y-80350000D03*
X60400000Y-80350000D03*
%TD*%
D21*
%TO.C,SW2*%
X68700000Y-69000000D03*
X68700000Y-64000000D03*
X73700000Y-69000000D03*
X73700000Y-64100000D03*
%TD*%
M02*
