%TF.GenerationSoftware,KiCad,Pcbnew,(7.0.0-0)*%
%TF.CreationDate,2023-06-23T15:16:10+02:00*%
%TF.ProjectId,RCcar,52436361-722e-46b6-9963-61645f706362,rev?*%
%TF.SameCoordinates,Original*%
%TF.FileFunction,Paste,Bot*%
%TF.FilePolarity,Positive*%
%FSLAX46Y46*%
G04 Gerber Fmt 4.6, Leading zero omitted, Abs format (unit mm)*
G04 Created by KiCad (PCBNEW (7.0.0-0)) date 2023-06-23 15:16:10*
%MOMM*%
%LPD*%
G01*
G04 APERTURE LIST*
G04 Aperture macros list*
%AMRoundRect*
0 Rectangle with rounded corners*
0 $1 Rounding radius*
0 $2 $3 $4 $5 $6 $7 $8 $9 X,Y pos of 4 corners*
0 Add a 4 corners polygon primitive as box body*
4,1,4,$2,$3,$4,$5,$6,$7,$8,$9,$2,$3,0*
0 Add four circle primitives for the rounded corners*
1,1,$1+$1,$2,$3*
1,1,$1+$1,$4,$5*
1,1,$1+$1,$6,$7*
1,1,$1+$1,$8,$9*
0 Add four rect primitives between the rounded corners*
20,1,$1+$1,$2,$3,$4,$5,0*
20,1,$1+$1,$4,$5,$6,$7,0*
20,1,$1+$1,$6,$7,$8,$9,0*
20,1,$1+$1,$8,$9,$2,$3,0*%
G04 Aperture macros list end*
%ADD10RoundRect,0.150000X0.150000X-0.587500X0.150000X0.587500X-0.150000X0.587500X-0.150000X-0.587500X0*%
%ADD11RoundRect,0.250000X0.625000X-0.400000X0.625000X0.400000X-0.625000X0.400000X-0.625000X-0.400000X0*%
%ADD12RoundRect,0.250000X-0.400000X-0.625000X0.400000X-0.625000X0.400000X0.625000X-0.400000X0.625000X0*%
%ADD13RoundRect,0.250000X-0.412500X-0.650000X0.412500X-0.650000X0.412500X0.650000X-0.412500X0.650000X0*%
%ADD14RoundRect,0.250000X-0.625000X0.400000X-0.625000X-0.400000X0.625000X-0.400000X0.625000X0.400000X0*%
%ADD15RoundRect,0.250000X-0.850000X-0.350000X0.850000X-0.350000X0.850000X0.350000X-0.850000X0.350000X0*%
%ADD16RoundRect,0.250000X-1.275000X-1.125000X1.275000X-1.125000X1.275000X1.125000X-1.275000X1.125000X0*%
%ADD17RoundRect,0.250000X0.650000X-0.412500X0.650000X0.412500X-0.650000X0.412500X-0.650000X-0.412500X0*%
%ADD18R,1.500000X2.000000*%
%ADD19R,3.800000X2.000000*%
%ADD20RoundRect,0.250000X-0.650000X0.412500X-0.650000X-0.412500X0.650000X-0.412500X0.650000X0.412500X0*%
%ADD21RoundRect,0.250000X0.400000X0.625000X-0.400000X0.625000X-0.400000X-0.625000X0.400000X-0.625000X0*%
G04 APERTURE END LIST*
D10*
%TO.C,Q2*%
X57050000Y-59087500D03*
X55150000Y-59087500D03*
X56100000Y-57212500D03*
%TD*%
D11*
%TO.C,R6*%
X67600000Y-51650000D03*
X67600000Y-48550000D03*
%TD*%
D12*
%TO.C,R16*%
X64125000Y-97025000D03*
X67225000Y-97025000D03*
%TD*%
D11*
%TO.C,R2*%
X63900000Y-51650000D03*
X63900000Y-48550000D03*
%TD*%
D13*
%TO.C,C9*%
X69687500Y-85800000D03*
X72812500Y-85800000D03*
%TD*%
D14*
%TO.C,R7*%
X67600000Y-53900000D03*
X67600000Y-57000000D03*
%TD*%
D15*
%TO.C,D4*%
X51550000Y-90010000D03*
D16*
X56175000Y-86205000D03*
X56175000Y-89255000D03*
X59525000Y-86205000D03*
X59525000Y-89255000D03*
D15*
X51550000Y-85450000D03*
%TD*%
D10*
%TO.C,Q3*%
X53200000Y-59087500D03*
X51300000Y-59087500D03*
X52250000Y-57212500D03*
%TD*%
D13*
%TO.C,C8*%
X63337500Y-73875000D03*
X66462500Y-73875000D03*
%TD*%
D10*
%TO.C,Q1*%
X60750000Y-59087500D03*
X58850000Y-59087500D03*
X59800000Y-57212500D03*
%TD*%
D17*
%TO.C,C3*%
X50100000Y-67812500D03*
X50100000Y-64687500D03*
%TD*%
D18*
%TO.C,U3*%
X43299999Y-86099999D03*
X40999999Y-86099999D03*
X38699999Y-86099999D03*
D19*
X40999999Y-79799999D03*
%TD*%
D20*
%TO.C,C5*%
X46800000Y-56337500D03*
X46800000Y-59462500D03*
%TD*%
D14*
%TO.C,R9*%
X71250000Y-53900000D03*
X71250000Y-57000000D03*
%TD*%
%TO.C,R11*%
X64150000Y-90825000D03*
X64150000Y-93925000D03*
%TD*%
D15*
%TO.C,U4*%
X63350000Y-81700000D03*
D16*
X67975000Y-77895000D03*
X67975000Y-80945000D03*
X71325000Y-77895000D03*
X71325000Y-80945000D03*
D15*
X63350000Y-77140000D03*
%TD*%
D20*
%TO.C,C6*%
X35750000Y-56337500D03*
X35750000Y-59462500D03*
%TD*%
D21*
%TO.C,R10*%
X66450000Y-85775000D03*
X63350000Y-85775000D03*
%TD*%
D20*
%TO.C,C1*%
X47300000Y-86137500D03*
X47300000Y-89262500D03*
%TD*%
D14*
%TO.C,R3*%
X63900000Y-53900000D03*
X63900000Y-57000000D03*
%TD*%
D20*
%TO.C,C2*%
X34850000Y-86087500D03*
X34850000Y-89212500D03*
%TD*%
%TO.C,C4*%
X54050000Y-64687500D03*
X54050000Y-67812500D03*
%TD*%
D11*
%TO.C,R8*%
X71250000Y-51650000D03*
X71250000Y-48550000D03*
%TD*%
M02*
