%TF.GenerationSoftware,KiCad,Pcbnew,(7.0.0-0)*%
%TF.CreationDate,2023-06-23T15:16:10+02:00*%
%TF.ProjectId,RCcar,52436361-722e-46b6-9963-61645f706362,rev?*%
%TF.SameCoordinates,Original*%
%TF.FileFunction,Copper,L2,Bot*%
%TF.FilePolarity,Positive*%
%FSLAX46Y46*%
G04 Gerber Fmt 4.6, Leading zero omitted, Abs format (unit mm)*
G04 Created by KiCad (PCBNEW (7.0.0-0)) date 2023-06-23 15:16:10*
%MOMM*%
%LPD*%
G01*
G04 APERTURE LIST*
G04 Aperture macros list*
%AMRoundRect*
0 Rectangle with rounded corners*
0 $1 Rounding radius*
0 $2 $3 $4 $5 $6 $7 $8 $9 X,Y pos of 4 corners*
0 Add a 4 corners polygon primitive as box body*
4,1,4,$2,$3,$4,$5,$6,$7,$8,$9,$2,$3,0*
0 Add four circle primitives for the rounded corners*
1,1,$1+$1,$2,$3*
1,1,$1+$1,$4,$5*
1,1,$1+$1,$6,$7*
1,1,$1+$1,$8,$9*
0 Add four rect primitives between the rounded corners*
20,1,$1+$1,$2,$3,$4,$5,0*
20,1,$1+$1,$4,$5,$6,$7,0*
20,1,$1+$1,$6,$7,$8,$9,0*
20,1,$1+$1,$8,$9,$2,$3,0*%
G04 Aperture macros list end*
%TA.AperFunction,ComponentPad*%
%ADD10R,1.700000X1.700000*%
%TD*%
%TA.AperFunction,ComponentPad*%
%ADD11O,1.700000X1.700000*%
%TD*%
%TA.AperFunction,ComponentPad*%
%ADD12C,2.250000*%
%TD*%
%TA.AperFunction,ComponentPad*%
%ADD13C,1.500000*%
%TD*%
%TA.AperFunction,ComponentPad*%
%ADD14C,1.850000*%
%TD*%
%TA.AperFunction,ComponentPad*%
%ADD15R,1.600000X1.600000*%
%TD*%
%TA.AperFunction,ComponentPad*%
%ADD16O,1.600000X1.600000*%
%TD*%
%TA.AperFunction,ComponentPad*%
%ADD17C,1.550000*%
%TD*%
%TA.AperFunction,SMDPad,CuDef*%
%ADD18RoundRect,0.150000X0.150000X-0.587500X0.150000X0.587500X-0.150000X0.587500X-0.150000X-0.587500X0*%
%TD*%
%TA.AperFunction,SMDPad,CuDef*%
%ADD19RoundRect,0.250000X0.625000X-0.400000X0.625000X0.400000X-0.625000X0.400000X-0.625000X-0.400000X0*%
%TD*%
%TA.AperFunction,SMDPad,CuDef*%
%ADD20RoundRect,0.250000X-0.400000X-0.625000X0.400000X-0.625000X0.400000X0.625000X-0.400000X0.625000X0*%
%TD*%
%TA.AperFunction,SMDPad,CuDef*%
%ADD21RoundRect,0.250000X-0.412500X-0.650000X0.412500X-0.650000X0.412500X0.650000X-0.412500X0.650000X0*%
%TD*%
%TA.AperFunction,SMDPad,CuDef*%
%ADD22RoundRect,0.250000X-0.625000X0.400000X-0.625000X-0.400000X0.625000X-0.400000X0.625000X0.400000X0*%
%TD*%
%TA.AperFunction,SMDPad,CuDef*%
%ADD23RoundRect,0.250000X-0.850000X-0.350000X0.850000X-0.350000X0.850000X0.350000X-0.850000X0.350000X0*%
%TD*%
%TA.AperFunction,SMDPad,CuDef*%
%ADD24RoundRect,0.250000X-1.275000X-1.125000X1.275000X-1.125000X1.275000X1.125000X-1.275000X1.125000X0*%
%TD*%
%TA.AperFunction,SMDPad,CuDef*%
%ADD25RoundRect,0.249997X-2.950003X-2.650003X2.950003X-2.650003X2.950003X2.650003X-2.950003X2.650003X0*%
%TD*%
%TA.AperFunction,SMDPad,CuDef*%
%ADD26RoundRect,0.250000X0.650000X-0.412500X0.650000X0.412500X-0.650000X0.412500X-0.650000X-0.412500X0*%
%TD*%
%TA.AperFunction,SMDPad,CuDef*%
%ADD27R,1.500000X2.000000*%
%TD*%
%TA.AperFunction,SMDPad,CuDef*%
%ADD28R,3.800000X2.000000*%
%TD*%
%TA.AperFunction,SMDPad,CuDef*%
%ADD29RoundRect,0.250000X-0.650000X0.412500X-0.650000X-0.412500X0.650000X-0.412500X0.650000X0.412500X0*%
%TD*%
%TA.AperFunction,SMDPad,CuDef*%
%ADD30RoundRect,0.250000X0.400000X0.625000X-0.400000X0.625000X-0.400000X-0.625000X0.400000X-0.625000X0*%
%TD*%
%TA.AperFunction,ViaPad*%
%ADD31C,0.800000*%
%TD*%
%TA.AperFunction,Conductor*%
%ADD32C,0.500000*%
%TD*%
%TA.AperFunction,Conductor*%
%ADD33C,0.300000*%
%TD*%
%TA.AperFunction,Conductor*%
%ADD34C,2.800000*%
%TD*%
G04 APERTURE END LIST*
D10*
%TO.P,J9,1,Pin_1*%
%TO.N,GND*%
X37624999Y-73474999D03*
D11*
%TO.P,J9,2,Pin_2*%
%TO.N,/RESET*%
X37624999Y-76014999D03*
%TO.P,J9,3,Pin_3*%
%TO.N,/MOSI*%
X35084999Y-73474999D03*
%TO.P,J9,4,Pin_4*%
%TO.N,/SCK*%
X35084999Y-76014999D03*
%TO.P,J9,5,Pin_5*%
%TO.N,+5V*%
X32544999Y-73474999D03*
%TO.P,J9,6,Pin_6*%
%TO.N,/MISO*%
X32544999Y-76014999D03*
%TD*%
D10*
%TO.P,J4,1,Pin_1*%
%TO.N,GND*%
X79699999Y-75249999D03*
D11*
%TO.P,J4,2,Pin_2*%
%TO.N,/SCL*%
X79699999Y-77789999D03*
%TO.P,J4,3,Pin_3*%
%TO.N,/SDA*%
X79699999Y-80329999D03*
%TO.P,J4,4,Pin_4*%
%TO.N,+5V*%
X79699999Y-82869999D03*
%TD*%
D12*
%TO.P,SW3,1,1*%
%TO.N,Net-(D4-A-Pad1)*%
X51550000Y-96100000D03*
%TO.P,SW3,2,2*%
%TO.N,+BATT*%
X56250000Y-96100000D03*
%TO.P,SW3,3,3*%
%TO.N,Net-(D4-A-Pad1)*%
X60950000Y-96100000D03*
%TD*%
D13*
%TO.P,Y1,1,1*%
%TO.N,Net-(U2-XTAL2{slash}PB7)*%
X38800000Y-57900000D03*
%TO.P,Y1,2,2*%
%TO.N,Net-(U2-XTAL1{slash}PB6)*%
X43680000Y-57900000D03*
%TD*%
D14*
%TO.P,J5,1,Pin_1*%
%TO.N,+BATT*%
X37850000Y-93650000D03*
%TO.P,J5,2,Pin_2*%
%TO.N,GND*%
X42850000Y-93650000D03*
%TD*%
D10*
%TO.P,J3,1,Pin_1*%
%TO.N,/DC_PWM*%
X32599999Y-50799999D03*
D11*
%TO.P,J3,2,Pin_2*%
%TO.N,/DC_IN2*%
X35139999Y-50799999D03*
%TO.P,J3,3,Pin_3*%
%TO.N,/DC_IN1*%
X37679999Y-50799999D03*
%TO.P,J3,4,Pin_4*%
%TO.N,/DC_IN2*%
X40219999Y-50799999D03*
%TO.P,J3,5,Pin_5*%
%TO.N,/DC_IN1*%
X42759999Y-50799999D03*
%TO.P,J3,6,Pin_6*%
%TO.N,/DC_PWM*%
X45299999Y-50799999D03*
%TD*%
D10*
%TO.P,J6,1,Pin_1*%
%TO.N,/PB0*%
X42789999Y-74749999D03*
D11*
%TO.P,J6,2,Pin_2*%
%TO.N,/PC0*%
X45329999Y-74749999D03*
%TO.P,J6,3,Pin_3*%
%TO.N,/PC1*%
X47869999Y-74749999D03*
%TO.P,J6,4,Pin_4*%
%TO.N,/PC2*%
X50409999Y-74749999D03*
%TO.P,J6,5,Pin_5*%
%TO.N,/PC3*%
X52949999Y-74749999D03*
%TO.P,J6,6,Pin_6*%
%TO.N,/PD0*%
X55489999Y-74749999D03*
%TO.P,J6,7,Pin_7*%
%TO.N,/PD1*%
X58029999Y-74749999D03*
%TD*%
D10*
%TO.P,J1,1,Pin_1*%
%TO.N,+5V*%
X50174999Y-51974999D03*
D11*
%TO.P,J1,2,Pin_2*%
%TO.N,/Red_LED_1*%
X50174999Y-49434999D03*
%TO.P,J1,3,Pin_3*%
%TO.N,/Red_LED_2*%
X52714999Y-51974999D03*
%TO.P,J1,4,Pin_4*%
%TO.N,/Red_LED_3*%
X52714999Y-49434999D03*
%TO.P,J1,5,Pin_5*%
%TO.N,/Red_LED_4*%
X55254999Y-51974999D03*
%TO.P,J1,6,Pin_6*%
%TO.N,/White_LED_1*%
X55254999Y-49434999D03*
%TO.P,J1,7,Pin_7*%
%TO.N,/White_LED_2*%
X57794999Y-51974999D03*
%TO.P,J1,8,Pin_8*%
%TO.N,/White_LED_3*%
X57794999Y-49434999D03*
%TO.P,J1,9,Pin_9*%
%TO.N,/White_LED_4*%
X60334999Y-51974999D03*
%TO.P,J1,10,Pin_10*%
%TO.N,+5V*%
X60334999Y-49434999D03*
%TD*%
D15*
%TO.P,U2,1,~{RESET}/PC6*%
%TO.N,/RESET*%
X65299999Y-62399999D03*
D16*
%TO.P,U2,2,PD0*%
%TO.N,/PD0*%
X62759999Y-62399999D03*
%TO.P,U2,3,PD1*%
%TO.N,/PD1*%
X60219999Y-62399999D03*
%TO.P,U2,4,PD2*%
%TO.N,/RED_LEFT*%
X57679999Y-62399999D03*
%TO.P,U2,5,PD3*%
%TO.N,/RED_RIGHT*%
X55139999Y-62399999D03*
%TO.P,U2,6,PD4*%
%TO.N,/FRONTLIGHTS*%
X52599999Y-62399999D03*
%TO.P,U2,7,VCC*%
%TO.N,+5V*%
X50059999Y-62399999D03*
%TO.P,U2,8,GND*%
%TO.N,GND*%
X47519999Y-62399999D03*
%TO.P,U2,9,XTAL1/PB6*%
%TO.N,Net-(U2-XTAL1{slash}PB6)*%
X44979999Y-62399999D03*
%TO.P,U2,10,XTAL2/PB7*%
%TO.N,Net-(U2-XTAL2{slash}PB7)*%
X42439999Y-62399999D03*
%TO.P,U2,11,PD5*%
%TO.N,/DC_PWM*%
X39899999Y-62399999D03*
%TO.P,U2,12,PD6*%
%TO.N,/DC_IN1*%
X37359999Y-62399999D03*
%TO.P,U2,13,PD7*%
%TO.N,/DC_IN2*%
X34819999Y-62399999D03*
%TO.P,U2,14,PB0*%
%TO.N,/PB0*%
X32279999Y-62399999D03*
%TO.P,U2,15,PB1*%
%TO.N,/SERV_PWM*%
X32279999Y-70019999D03*
%TO.P,U2,16,PB2*%
%TO.N,+5V*%
X34819999Y-70019999D03*
%TO.P,U2,17,PB3*%
%TO.N,/MOSI*%
X37359999Y-70019999D03*
%TO.P,U2,18,PB4*%
%TO.N,/MISO*%
X39899999Y-70019999D03*
%TO.P,U2,19,PB5*%
%TO.N,/SCK*%
X42439999Y-70019999D03*
%TO.P,U2,20,AVCC*%
%TO.N,+5V*%
X44979999Y-70019999D03*
%TO.P,U2,21,AREF*%
X47519999Y-70019999D03*
%TO.P,U2,22,GND*%
%TO.N,GND*%
X50059999Y-70019999D03*
%TO.P,U2,23,PC0*%
%TO.N,/PC0*%
X52599999Y-70019999D03*
%TO.P,U2,24,PC1*%
%TO.N,/PC1*%
X55139999Y-70019999D03*
%TO.P,U2,25,PC2*%
%TO.N,/PC2*%
X57679999Y-70019999D03*
%TO.P,U2,26,PC3*%
%TO.N,/PC3*%
X60219999Y-70019999D03*
%TO.P,U2,27,PC4*%
%TO.N,/SDA*%
X62759999Y-70019999D03*
%TO.P,U2,28,PC5*%
%TO.N,/SCL*%
X65299999Y-70019999D03*
%TD*%
D10*
%TO.P,J2,1,Pin_1*%
%TO.N,GND*%
X79699999Y-70989999D03*
D11*
%TO.P,J2,2,Pin_2*%
%TO.N,+6V*%
X79699999Y-68449999D03*
%TO.P,J2,3,Pin_3*%
%TO.N,/SERV_PWM*%
X79699999Y-65909999D03*
%TD*%
D14*
%TO.P,J7,1,Pin_1*%
%TO.N,+6V*%
X69650000Y-93650000D03*
%TO.P,J7,2,Pin_2*%
%TO.N,GND*%
X74650000Y-93650000D03*
%TD*%
D17*
%TO.P,SW2,1,1*%
%TO.N,/RESET*%
X68700000Y-69000000D03*
%TO.P,SW2,2,2*%
X68700000Y-64000000D03*
%TO.P,SW2,3,K*%
%TO.N,GND*%
X73700000Y-69000000D03*
%TO.P,SW2,4,A*%
X73700000Y-64100000D03*
%TD*%
D18*
%TO.P,Q2,1,C*%
%TO.N,Net-(Q2-C)*%
X57050000Y-59087500D03*
%TO.P,Q2,2,B*%
%TO.N,Net-(Q2-B)*%
X55150000Y-59087500D03*
%TO.P,Q2,3,E*%
%TO.N,GND*%
X56100000Y-57212500D03*
%TD*%
D19*
%TO.P,R6,1*%
%TO.N,Net-(Q3-C)*%
X67600000Y-51650000D03*
%TO.P,R6,2*%
%TO.N,/White_LED_1*%
X67600000Y-48550000D03*
%TD*%
D20*
%TO.P,R16,1*%
%TO.N,Net-(R11-Pad2)*%
X64125000Y-97025000D03*
%TO.P,R16,2*%
%TO.N,GND*%
X67225000Y-97025000D03*
%TD*%
D19*
%TO.P,R2,1*%
%TO.N,Net-(Q1-C)*%
X63900000Y-51650000D03*
%TO.P,R2,2*%
%TO.N,/Red_LED_1*%
X63900000Y-48550000D03*
%TD*%
D21*
%TO.P,C9,1*%
%TO.N,+6V*%
X69687500Y-85800000D03*
%TO.P,C9,2*%
%TO.N,GND*%
X72812500Y-85800000D03*
%TD*%
D22*
%TO.P,R7,1*%
%TO.N,Net-(Q3-C)*%
X67600000Y-53900000D03*
%TO.P,R7,2*%
%TO.N,/White_LED_2*%
X67600000Y-57000000D03*
%TD*%
D23*
%TO.P,D4,1,A*%
%TO.N,Net-(D4-A-Pad1)*%
X51550000Y-90010000D03*
D24*
%TO.P,D4,2,K*%
%TO.N,Net-(D4-K)*%
X56175000Y-86205000D03*
X56175000Y-89255000D03*
D25*
X57850000Y-87730000D03*
D24*
X59525000Y-86205000D03*
X59525000Y-89255000D03*
D23*
%TO.P,D4,3,A*%
%TO.N,Net-(D4-A-Pad1)*%
X51550000Y-85450000D03*
%TD*%
D18*
%TO.P,Q3,1,C*%
%TO.N,Net-(Q3-C)*%
X53200000Y-59087500D03*
%TO.P,Q3,2,B*%
%TO.N,Net-(Q3-B)*%
X51300000Y-59087500D03*
%TO.P,Q3,3,E*%
%TO.N,GND*%
X52250000Y-57212500D03*
%TD*%
D21*
%TO.P,C8,1*%
%TO.N,Net-(D4-K)*%
X63337500Y-73875000D03*
%TO.P,C8,2*%
%TO.N,GND*%
X66462500Y-73875000D03*
%TD*%
D18*
%TO.P,Q1,1,C*%
%TO.N,Net-(Q1-C)*%
X60750000Y-59087500D03*
%TO.P,Q1,2,B*%
%TO.N,Net-(Q1-B)*%
X58850000Y-59087500D03*
%TO.P,Q1,3,E*%
%TO.N,GND*%
X59800000Y-57212500D03*
%TD*%
D26*
%TO.P,C3,1*%
%TO.N,GND*%
X50100000Y-67812500D03*
%TO.P,C3,2*%
%TO.N,+5V*%
X50100000Y-64687500D03*
%TD*%
D27*
%TO.P,U3,1,VI*%
%TO.N,Net-(D4-K)*%
X43299999Y-86099999D03*
%TO.P,U3,2,GND*%
%TO.N,GND*%
X40999999Y-86099999D03*
%TO.P,U3,3,VO*%
%TO.N,+5V*%
X38699999Y-86099999D03*
D28*
%TO.P,U3,4*%
%TO.N,N/C*%
X40999999Y-79799999D03*
%TD*%
D29*
%TO.P,C5,1*%
%TO.N,Net-(U2-XTAL1{slash}PB6)*%
X46800000Y-56337500D03*
%TO.P,C5,2*%
%TO.N,GND*%
X46800000Y-59462500D03*
%TD*%
D22*
%TO.P,R9,1*%
%TO.N,Net-(Q3-C)*%
X71250000Y-53900000D03*
%TO.P,R9,2*%
%TO.N,/White_LED_4*%
X71250000Y-57000000D03*
%TD*%
%TO.P,R11,1*%
%TO.N,Net-(U4-ADJ)*%
X64150000Y-90825000D03*
%TO.P,R11,2*%
%TO.N,Net-(R11-Pad2)*%
X64150000Y-93925000D03*
%TD*%
D23*
%TO.P,U4,1,ADJ*%
%TO.N,Net-(U4-ADJ)*%
X63350000Y-81700000D03*
D24*
%TO.P,U4,2,VO*%
%TO.N,+6V*%
X67975000Y-77895000D03*
X67975000Y-80945000D03*
D25*
X69650000Y-79420000D03*
D24*
X71325000Y-77895000D03*
X71325000Y-80945000D03*
D23*
%TO.P,U4,3,VI*%
%TO.N,Net-(D4-K)*%
X63350000Y-77140000D03*
%TD*%
D29*
%TO.P,C6,1*%
%TO.N,Net-(U2-XTAL2{slash}PB7)*%
X35750000Y-56337500D03*
%TO.P,C6,2*%
%TO.N,GND*%
X35750000Y-59462500D03*
%TD*%
D30*
%TO.P,R10,1*%
%TO.N,+6V*%
X66450000Y-85775000D03*
%TO.P,R10,2*%
%TO.N,Net-(U4-ADJ)*%
X63350000Y-85775000D03*
%TD*%
D29*
%TO.P,C1,1*%
%TO.N,Net-(D4-K)*%
X47300000Y-86137500D03*
%TO.P,C1,2*%
%TO.N,GND*%
X47300000Y-89262500D03*
%TD*%
D22*
%TO.P,R3,1*%
%TO.N,Net-(Q1-C)*%
X63900000Y-53900000D03*
%TO.P,R3,2*%
%TO.N,/Red_LED_2*%
X63900000Y-57000000D03*
%TD*%
D29*
%TO.P,C2,1*%
%TO.N,+5V*%
X34850000Y-86087500D03*
%TO.P,C2,2*%
%TO.N,GND*%
X34850000Y-89212500D03*
%TD*%
%TO.P,C4,1*%
%TO.N,+5V*%
X54050000Y-64687500D03*
%TO.P,C4,2*%
%TO.N,GND*%
X54050000Y-67812500D03*
%TD*%
D19*
%TO.P,R8,1*%
%TO.N,Net-(Q3-C)*%
X71250000Y-51650000D03*
%TO.P,R8,2*%
%TO.N,/White_LED_3*%
X71250000Y-48550000D03*
%TD*%
D31*
%TO.N,+5V*%
X75399500Y-81550000D03*
X76400000Y-82900000D03*
X76400000Y-76700000D03*
%TO.N,GND*%
X44850000Y-72750000D03*
X41600000Y-72849500D03*
X77050000Y-66750000D03*
X46550000Y-66750000D03*
%TO.N,+5V*%
X35850000Y-82500000D03*
X33200000Y-96300000D03*
%TO.N,Net-(U2-XTAL2{slash}PB7)*%
X40649500Y-57900000D03*
%TO.N,+6V*%
X70850000Y-75800000D03*
%TO.N,/SERV_PWM*%
X32250000Y-65950000D03*
%TO.N,/DC_PWM*%
X39900000Y-54150000D03*
%TO.N,/DC_IN1*%
X37650000Y-53300000D03*
%TO.N,/PD0*%
X61500000Y-68100000D03*
%TO.N,/PD1*%
X60200000Y-73050000D03*
%TO.N,/RESET*%
X41500000Y-76850000D03*
%TO.N,/PB0*%
X33700000Y-67450500D03*
%TO.N,Net-(Q1-C)*%
X65700000Y-59100000D03*
X65700000Y-53900000D03*
%TO.N,Net-(Q1-B)*%
X59800000Y-59050000D03*
%TO.N,Net-(Q2-C)*%
X62400000Y-60350000D03*
%TO.N,Net-(Q2-B)*%
X55150000Y-57962000D03*
%TO.N,Net-(Q3-B)*%
X52600000Y-55300000D03*
%TD*%
D32*
%TO.N,+5V*%
X76400000Y-76700000D02*
X76400000Y-81550000D01*
X76400000Y-81550000D02*
X76400000Y-82900000D01*
X75399500Y-81550000D02*
X76400000Y-81550000D01*
%TO.N,GND*%
X46550000Y-66750000D02*
X46550000Y-63370000D01*
D33*
X56100000Y-57212500D02*
X52250000Y-57212500D01*
X71275000Y-97025000D02*
X74650000Y-93650000D01*
D32*
X46550000Y-63370000D02*
X47520000Y-62400000D01*
D33*
X35750000Y-59462500D02*
X44582500Y-59462500D01*
X47520000Y-60182500D02*
X47520000Y-62400000D01*
X53350000Y-54989339D02*
X53350000Y-56112500D01*
D32*
X77800000Y-69950000D02*
X77800000Y-67500000D01*
D33*
X46800000Y-59462500D02*
X51712500Y-54550000D01*
D32*
X41100000Y-91900000D02*
X42850000Y-93650000D01*
X41000000Y-89162500D02*
X41100000Y-89262500D01*
D33*
X53350000Y-56112500D02*
X52250000Y-57212500D01*
X52267500Y-67812500D02*
X50060000Y-70020000D01*
D32*
X41100000Y-89262500D02*
X41100000Y-91900000D01*
D33*
X41699500Y-72750000D02*
X41600000Y-72849500D01*
X44582500Y-59462500D02*
X47520000Y-62400000D01*
X51712500Y-54550000D02*
X52910661Y-54550000D01*
X66462500Y-73875000D02*
X74275000Y-73875000D01*
D32*
X77800000Y-75550000D02*
X77800000Y-90500000D01*
X41100000Y-89262500D02*
X47300000Y-89262500D01*
X77800000Y-69950000D02*
X76850000Y-69000000D01*
X77800000Y-72890000D02*
X77800000Y-69950000D01*
D33*
X44850000Y-72750000D02*
X41699500Y-72750000D01*
D32*
X34900000Y-89262500D02*
X41100000Y-89262500D01*
X41000000Y-86100000D02*
X41000000Y-89162500D01*
D33*
X74275000Y-73875000D02*
X74650000Y-74250000D01*
X67225000Y-97025000D02*
X71275000Y-97025000D01*
D32*
X79700000Y-75250000D02*
X78100000Y-75250000D01*
D33*
X52910661Y-54550000D02*
X53350000Y-54989339D01*
X74650000Y-74250000D02*
X74650000Y-85800000D01*
X73700000Y-64100000D02*
X73700000Y-69000000D01*
D32*
X77800000Y-72890000D02*
X77800000Y-75550000D01*
X77800000Y-90500000D02*
X74650000Y-93650000D01*
X79700000Y-70990000D02*
X77800000Y-72890000D01*
D33*
X59800000Y-57212500D02*
X56100000Y-57212500D01*
X54050000Y-67812500D02*
X52267500Y-67812500D01*
D32*
X78100000Y-75250000D02*
X77800000Y-75550000D01*
X34850000Y-89212500D02*
X34900000Y-89262500D01*
D33*
X46800000Y-59462500D02*
X47520000Y-60182500D01*
X50100000Y-67812500D02*
X50100000Y-69980000D01*
X72812500Y-85800000D02*
X74650000Y-85800000D01*
X50100000Y-69980000D02*
X50060000Y-70020000D01*
D32*
X77800000Y-67500000D02*
X77050000Y-66750000D01*
X76850000Y-69000000D02*
X73700000Y-69000000D01*
D33*
X74650000Y-85800000D02*
X74650000Y-93650000D01*
D32*
%TO.N,+5V*%
X33200000Y-87700000D02*
X33200000Y-96300000D01*
X44980000Y-70020000D02*
X43730000Y-68770000D01*
X50100000Y-64687500D02*
X50100000Y-62440000D01*
X38700000Y-86100000D02*
X34862500Y-86100000D01*
X35850000Y-85087500D02*
X34850000Y-86087500D01*
X34850000Y-86087500D02*
X34850000Y-82150000D01*
X36070000Y-68770000D02*
X34820000Y-70020000D01*
X34850000Y-82150000D02*
X40250000Y-76750000D01*
X43730000Y-68770000D02*
X36070000Y-68770000D01*
X50100000Y-64687500D02*
X54050000Y-64687500D01*
X50100000Y-62440000D02*
X50060000Y-62400000D01*
X35850000Y-82500000D02*
X35850000Y-85087500D01*
X34862500Y-86100000D02*
X34850000Y-86087500D01*
X47520000Y-70020000D02*
X44980000Y-70020000D01*
X40250000Y-72000000D02*
X43000000Y-72000000D01*
X34850000Y-86087500D02*
X34812500Y-86087500D01*
X47520000Y-70020000D02*
X47520000Y-67267500D01*
X34812500Y-86087500D02*
X33200000Y-87700000D01*
X40250000Y-76750000D02*
X40250000Y-72000000D01*
X47520000Y-67267500D02*
X50100000Y-64687500D01*
X43000000Y-72000000D02*
X44980000Y-70020000D01*
D33*
%TO.N,Net-(U2-XTAL1{slash}PB6)*%
X43680000Y-57900000D02*
X45237500Y-57900000D01*
X45237500Y-57900000D02*
X46800000Y-56337500D01*
%TO.N,Net-(U2-XTAL2{slash}PB7)*%
X38800000Y-57900000D02*
X37312500Y-57900000D01*
X37312500Y-57900000D02*
X35750000Y-56337500D01*
X40649500Y-57900000D02*
X38800000Y-57900000D01*
D34*
%TO.N,+6V*%
X69650000Y-85762500D02*
X69687500Y-85800000D01*
X69650000Y-79420000D02*
X69650000Y-85762500D01*
X69687500Y-85800000D02*
X69687500Y-93612500D01*
D33*
X66450000Y-85775000D02*
X69662500Y-85775000D01*
X69662500Y-85775000D02*
X69687500Y-85800000D01*
D32*
X70850000Y-75800000D02*
X70850000Y-77420000D01*
X70850000Y-77420000D02*
X71325000Y-77895000D01*
D34*
X69687500Y-93612500D02*
X69650000Y-93650000D01*
D33*
%TO.N,/Red_LED_1*%
X52210000Y-47400000D02*
X50175000Y-49435000D01*
X63900000Y-48550000D02*
X62750000Y-47400000D01*
X62750000Y-47400000D02*
X52210000Y-47400000D01*
%TO.N,/Red_LED_2*%
X63900000Y-57000000D02*
X63025000Y-56125000D01*
X63025000Y-56125000D02*
X61237894Y-56125000D01*
X61237894Y-56125000D02*
X58431447Y-53318553D01*
X54058553Y-53318553D02*
X52715000Y-51975000D01*
X58431447Y-53318553D02*
X54058553Y-53318553D01*
%TO.N,/White_LED_1*%
X67600000Y-48550000D02*
X66600000Y-49550000D01*
X62550000Y-49550000D02*
X60900000Y-47900000D01*
X60900000Y-47900000D02*
X56790000Y-47900000D01*
X66600000Y-49550000D02*
X62550000Y-49550000D01*
X56790000Y-47900000D02*
X55255000Y-49435000D01*
%TO.N,/White_LED_2*%
X67600000Y-57000000D02*
X66000000Y-55400000D01*
X61220000Y-55400000D02*
X57795000Y-51975000D01*
X66000000Y-55400000D02*
X61220000Y-55400000D01*
%TO.N,/White_LED_3*%
X71250000Y-48550000D02*
X69150000Y-50650000D01*
X59010000Y-50650000D02*
X57795000Y-49435000D01*
X69150000Y-50650000D02*
X59010000Y-50650000D01*
%TO.N,/White_LED_4*%
X69150000Y-54900000D02*
X63026472Y-54900000D01*
X63026472Y-54900000D02*
X60335000Y-52208528D01*
X71250000Y-57000000D02*
X69150000Y-54900000D01*
X60335000Y-52208528D02*
X60335000Y-51975000D01*
%TO.N,/SERV_PWM*%
X32250000Y-65950000D02*
X32280000Y-65980000D01*
X32280000Y-65980000D02*
X32280000Y-70020000D01*
%TO.N,/DC_PWM*%
X35950000Y-54150000D02*
X32600000Y-50800000D01*
X39900000Y-54150000D02*
X35950000Y-54150000D01*
%TO.N,/DC_IN1*%
X37680000Y-53270000D02*
X37650000Y-53300000D01*
X37680000Y-50800000D02*
X37680000Y-53270000D01*
%TO.N,/PD0*%
X62760000Y-66840000D02*
X62760000Y-62400000D01*
X61500000Y-68100000D02*
X62760000Y-66840000D01*
%TO.N,/PD1*%
X61370000Y-71880000D02*
X61370000Y-69070000D01*
X60220000Y-67920000D02*
X60220000Y-62400000D01*
X60200000Y-73050000D02*
X61370000Y-71880000D01*
X61370000Y-69070000D02*
X60220000Y-67920000D01*
%TO.N,/RESET*%
X65300000Y-62400000D02*
X64150000Y-63550000D01*
X68700000Y-69000000D02*
X68700000Y-64000000D01*
X64150000Y-63550000D02*
X64150000Y-70500000D01*
X57800000Y-76850000D02*
X41500000Y-76850000D01*
X64150000Y-70500000D02*
X57800000Y-76850000D01*
%TO.N,/SCK*%
X39650000Y-71700000D02*
X40150000Y-71200000D01*
X41260000Y-71200000D02*
X42440000Y-70020000D01*
X35085000Y-76015000D02*
X36425000Y-74675000D01*
X38625000Y-74675000D02*
X39650000Y-73650000D01*
X40150000Y-71200000D02*
X41260000Y-71200000D01*
X36425000Y-74675000D02*
X38625000Y-74675000D01*
X39650000Y-73650000D02*
X39650000Y-71700000D01*
%TO.N,Net-(U4-ADJ)*%
X63350000Y-90025000D02*
X64150000Y-90825000D01*
X63350000Y-85775000D02*
X63350000Y-90025000D01*
X63350000Y-81700000D02*
X63350000Y-85775000D01*
%TO.N,Net-(R11-Pad2)*%
X64150000Y-97000000D02*
X64125000Y-97025000D01*
X64150000Y-93925000D02*
X64150000Y-97000000D01*
%TO.N,/PB0*%
X33700000Y-63820000D02*
X32280000Y-62400000D01*
X33700000Y-67450500D02*
X33700000Y-63820000D01*
%TO.N,Net-(Q1-C)*%
X60762500Y-59100000D02*
X60750000Y-59087500D01*
X63900000Y-53900000D02*
X65700000Y-53900000D01*
X63900000Y-53900000D02*
X63900000Y-51650000D01*
X65700000Y-59100000D02*
X60762500Y-59100000D01*
%TO.N,Net-(Q1-B)*%
X59800000Y-59050000D02*
X58887500Y-59050000D01*
X58887500Y-59050000D02*
X58850000Y-59087500D01*
%TO.N,Net-(Q2-C)*%
X58312500Y-60350000D02*
X57050000Y-59087500D01*
X62400000Y-60350000D02*
X58312500Y-60350000D01*
%TO.N,Net-(Q2-B)*%
X55150000Y-57962000D02*
X55150000Y-59087500D01*
%TO.N,Net-(Q3-C)*%
X67600000Y-53900000D02*
X67600000Y-51650000D01*
X55262500Y-61150000D02*
X53200000Y-59087500D01*
X72475000Y-55125000D02*
X72475000Y-57975000D01*
X67600000Y-53900000D02*
X71250000Y-53900000D01*
X67600000Y-51650000D02*
X71250000Y-51650000D01*
X71250000Y-53900000D02*
X72475000Y-55125000D01*
X69300000Y-61150000D02*
X55262500Y-61150000D01*
X72475000Y-57975000D02*
X69300000Y-61150000D01*
%TO.N,Net-(Q3-B)*%
X51300000Y-59087500D02*
X51300000Y-55900000D01*
X51900000Y-55300000D02*
X52600000Y-55300000D01*
X51850000Y-55350000D02*
X51900000Y-55300000D01*
X51300000Y-55900000D02*
X51850000Y-55350000D01*
D32*
%TO.N,Net-(D4-K)*%
X47300000Y-86137500D02*
X47300000Y-85050000D01*
D33*
X63337500Y-73875000D02*
X63337500Y-77127500D01*
D32*
X47300000Y-85050000D02*
X49300000Y-83050000D01*
X47262500Y-86100000D02*
X47300000Y-86137500D01*
X43300000Y-86100000D02*
X47262500Y-86100000D01*
D34*
X62560000Y-77140000D02*
X63350000Y-77140000D01*
X59525000Y-86205000D02*
X59525000Y-80175000D01*
D32*
X49300000Y-83050000D02*
X53020000Y-83050000D01*
D34*
X59525000Y-80175000D02*
X62560000Y-77140000D01*
D32*
X53020000Y-83050000D02*
X56175000Y-86205000D01*
D33*
X63337500Y-77127500D02*
X63350000Y-77140000D01*
D34*
%TO.N,Net-(D4-A-Pad1)*%
X51550000Y-96100000D02*
X54725000Y-92925000D01*
X51550000Y-90010000D02*
X51550000Y-85450000D01*
X57775000Y-92925000D02*
X60950000Y-96100000D01*
X54725000Y-92925000D02*
X57775000Y-92925000D01*
X51550000Y-96100000D02*
X51550000Y-90010000D01*
%TD*%
M02*
