%TF.GenerationSoftware,KiCad,Pcbnew,(7.0.0-0)*%
%TF.CreationDate,2023-06-23T15:16:10+02:00*%
%TF.ProjectId,RCcar,52436361-722e-46b6-9963-61645f706362,rev?*%
%TF.SameCoordinates,Original*%
%TF.FileFunction,Copper,L1,Top*%
%TF.FilePolarity,Positive*%
%FSLAX46Y46*%
G04 Gerber Fmt 4.6, Leading zero omitted, Abs format (unit mm)*
G04 Created by KiCad (PCBNEW (7.0.0-0)) date 2023-06-23 15:16:10*
%MOMM*%
%LPD*%
G01*
G04 APERTURE LIST*
G04 Aperture macros list*
%AMRoundRect*
0 Rectangle with rounded corners*
0 $1 Rounding radius*
0 $2 $3 $4 $5 $6 $7 $8 $9 X,Y pos of 4 corners*
0 Add a 4 corners polygon primitive as box body*
4,1,4,$2,$3,$4,$5,$6,$7,$8,$9,$2,$3,0*
0 Add four circle primitives for the rounded corners*
1,1,$1+$1,$2,$3*
1,1,$1+$1,$4,$5*
1,1,$1+$1,$6,$7*
1,1,$1+$1,$8,$9*
0 Add four rect primitives between the rounded corners*
20,1,$1+$1,$2,$3,$4,$5,0*
20,1,$1+$1,$4,$5,$6,$7,0*
20,1,$1+$1,$6,$7,$8,$9,0*
20,1,$1+$1,$8,$9,$2,$3,0*%
G04 Aperture macros list end*
%TA.AperFunction,SMDPad,CuDef*%
%ADD10RoundRect,0.250000X0.625000X-0.400000X0.625000X0.400000X-0.625000X0.400000X-0.625000X-0.400000X0*%
%TD*%
%TA.AperFunction,ComponentPad*%
%ADD11R,1.700000X1.700000*%
%TD*%
%TA.AperFunction,ComponentPad*%
%ADD12O,1.700000X1.700000*%
%TD*%
%TA.AperFunction,SMDPad,CuDef*%
%ADD13RoundRect,0.250001X-0.624999X0.462499X-0.624999X-0.462499X0.624999X-0.462499X0.624999X0.462499X0*%
%TD*%
%TA.AperFunction,ComponentPad*%
%ADD14C,2.250000*%
%TD*%
%TA.AperFunction,ComponentPad*%
%ADD15C,1.500000*%
%TD*%
%TA.AperFunction,ComponentPad*%
%ADD16C,1.850000*%
%TD*%
%TA.AperFunction,SMDPad,CuDef*%
%ADD17RoundRect,0.250000X-0.625000X0.400000X-0.625000X-0.400000X0.625000X-0.400000X0.625000X0.400000X0*%
%TD*%
%TA.AperFunction,ComponentPad*%
%ADD18R,1.600000X1.600000*%
%TD*%
%TA.AperFunction,ComponentPad*%
%ADD19O,1.600000X1.600000*%
%TD*%
%TA.AperFunction,SMDPad,CuDef*%
%ADD20RoundRect,0.250000X0.400000X0.625000X-0.400000X0.625000X-0.400000X-0.625000X0.400000X-0.625000X0*%
%TD*%
%TA.AperFunction,ComponentPad*%
%ADD21C,1.550000*%
%TD*%
%TA.AperFunction,ViaPad*%
%ADD22C,0.800000*%
%TD*%
%TA.AperFunction,Conductor*%
%ADD23C,0.500000*%
%TD*%
%TA.AperFunction,Conductor*%
%ADD24C,0.300000*%
%TD*%
%TA.AperFunction,Conductor*%
%ADD25C,2.800000*%
%TD*%
G04 APERTURE END LIST*
D10*
%TO.P,R12,1*%
%TO.N,+5V*%
X68700000Y-75600000D03*
%TO.P,R12,2*%
%TO.N,/RESET*%
X68700000Y-72500000D03*
%TD*%
%TO.P,R15,1*%
%TO.N,+6V*%
X79600000Y-94800000D03*
%TO.P,R15,2*%
%TO.N,Net-(D3-A)*%
X79600000Y-91700000D03*
%TD*%
D11*
%TO.P,J9,1,Pin_1*%
%TO.N,GND*%
X37624999Y-73474999D03*
D12*
%TO.P,J9,2,Pin_2*%
%TO.N,/RESET*%
X37624999Y-76014999D03*
%TO.P,J9,3,Pin_3*%
%TO.N,/MOSI*%
X35084999Y-73474999D03*
%TO.P,J9,4,Pin_4*%
%TO.N,/SCK*%
X35084999Y-76014999D03*
%TO.P,J9,5,Pin_5*%
%TO.N,+5V*%
X32544999Y-73474999D03*
%TO.P,J9,6,Pin_6*%
%TO.N,/MISO*%
X32544999Y-76014999D03*
%TD*%
D11*
%TO.P,J4,1,Pin_1*%
%TO.N,GND*%
X79699999Y-75249999D03*
D12*
%TO.P,J4,2,Pin_2*%
%TO.N,/SCL*%
X79699999Y-77789999D03*
%TO.P,J4,3,Pin_3*%
%TO.N,/SDA*%
X79699999Y-80329999D03*
%TO.P,J4,4,Pin_4*%
%TO.N,+5V*%
X79699999Y-82869999D03*
%TD*%
D13*
%TO.P,D3,1,K*%
%TO.N,GND*%
X79600000Y-86262500D03*
%TO.P,D3,2,A*%
%TO.N,Net-(D3-A)*%
X79600000Y-89237500D03*
%TD*%
D14*
%TO.P,SW3,1,1*%
%TO.N,Net-(D4-A-Pad1)*%
X51550000Y-96100000D03*
%TO.P,SW3,2,2*%
%TO.N,+BATT*%
X56250000Y-96100000D03*
%TO.P,SW3,3,3*%
%TO.N,Net-(D4-A-Pad1)*%
X60950000Y-96100000D03*
%TD*%
D10*
%TO.P,R1,1*%
%TO.N,+5V*%
X33200000Y-94800000D03*
%TO.P,R1,2*%
%TO.N,Net-(D1-A)*%
X33200000Y-91700000D03*
%TD*%
D15*
%TO.P,Y1,1,1*%
%TO.N,Net-(U2-XTAL2{slash}PB7)*%
X38800000Y-57900000D03*
%TO.P,Y1,2,2*%
%TO.N,Net-(U2-XTAL1{slash}PB6)*%
X43680000Y-57900000D03*
%TD*%
D16*
%TO.P,J5,1,Pin_1*%
%TO.N,+BATT*%
X37850000Y-93650000D03*
%TO.P,J5,2,Pin_2*%
%TO.N,GND*%
X42850000Y-93650000D03*
%TD*%
D17*
%TO.P,R5,1*%
%TO.N,Net-(Q2-C)*%
X63900000Y-53900000D03*
%TO.P,R5,2*%
%TO.N,/Red_LED_4*%
X63900000Y-57000000D03*
%TD*%
%TO.P,R19,1*%
%TO.N,Net-(Q1-B)*%
X57700000Y-56850000D03*
%TO.P,R19,2*%
%TO.N,/RED_LEFT*%
X57700000Y-59950000D03*
%TD*%
D13*
%TO.P,D1,1,K*%
%TO.N,GND*%
X33200000Y-86262500D03*
%TO.P,D1,2,A*%
%TO.N,Net-(D1-A)*%
X33200000Y-89237500D03*
%TD*%
D11*
%TO.P,J3,1,Pin_1*%
%TO.N,/DC_PWM*%
X32599999Y-50799999D03*
D12*
%TO.P,J3,2,Pin_2*%
%TO.N,/DC_IN2*%
X35139999Y-50799999D03*
%TO.P,J3,3,Pin_3*%
%TO.N,/DC_IN1*%
X37679999Y-50799999D03*
%TO.P,J3,4,Pin_4*%
%TO.N,/DC_IN2*%
X40219999Y-50799999D03*
%TO.P,J3,5,Pin_5*%
%TO.N,/DC_IN1*%
X42759999Y-50799999D03*
%TO.P,J3,6,Pin_6*%
%TO.N,/DC_PWM*%
X45299999Y-50799999D03*
%TD*%
D17*
%TO.P,R18,1*%
%TO.N,Net-(Q2-B)*%
X55150000Y-56850000D03*
%TO.P,R18,2*%
%TO.N,/RED_RIGHT*%
X55150000Y-59950000D03*
%TD*%
%TO.P,R14,1*%
%TO.N,/SCL*%
X72950000Y-72500000D03*
%TO.P,R14,2*%
%TO.N,+5V*%
X72950000Y-75600000D03*
%TD*%
D11*
%TO.P,J6,1,Pin_1*%
%TO.N,/PB0*%
X42789999Y-74749999D03*
D12*
%TO.P,J6,2,Pin_2*%
%TO.N,/PC0*%
X45329999Y-74749999D03*
%TO.P,J6,3,Pin_3*%
%TO.N,/PC1*%
X47869999Y-74749999D03*
%TO.P,J6,4,Pin_4*%
%TO.N,/PC2*%
X50409999Y-74749999D03*
%TO.P,J6,5,Pin_5*%
%TO.N,/PC3*%
X52949999Y-74749999D03*
%TO.P,J6,6,Pin_6*%
%TO.N,/PD0*%
X55489999Y-74749999D03*
%TO.P,J6,7,Pin_7*%
%TO.N,/PD1*%
X58029999Y-74749999D03*
%TD*%
D17*
%TO.P,R17,1*%
%TO.N,Net-(Q3-B)*%
X52600000Y-56850000D03*
%TO.P,R17,2*%
%TO.N,/FRONTLIGHTS*%
X52600000Y-59950000D03*
%TD*%
D10*
%TO.P,R4,1*%
%TO.N,Net-(Q2-C)*%
X63900000Y-51650000D03*
%TO.P,R4,2*%
%TO.N,/Red_LED_3*%
X63900000Y-48550000D03*
%TD*%
D11*
%TO.P,J1,1,Pin_1*%
%TO.N,+5V*%
X50174999Y-51974999D03*
D12*
%TO.P,J1,2,Pin_2*%
%TO.N,/Red_LED_1*%
X50174999Y-49434999D03*
%TO.P,J1,3,Pin_3*%
%TO.N,/Red_LED_2*%
X52714999Y-51974999D03*
%TO.P,J1,4,Pin_4*%
%TO.N,/Red_LED_3*%
X52714999Y-49434999D03*
%TO.P,J1,5,Pin_5*%
%TO.N,/Red_LED_4*%
X55254999Y-51974999D03*
%TO.P,J1,6,Pin_6*%
%TO.N,/White_LED_1*%
X55254999Y-49434999D03*
%TO.P,J1,7,Pin_7*%
%TO.N,/White_LED_2*%
X57794999Y-51974999D03*
%TO.P,J1,8,Pin_8*%
%TO.N,/White_LED_3*%
X57794999Y-49434999D03*
%TO.P,J1,9,Pin_9*%
%TO.N,/White_LED_4*%
X60334999Y-51974999D03*
%TO.P,J1,10,Pin_10*%
%TO.N,+5V*%
X60334999Y-49434999D03*
%TD*%
D18*
%TO.P,U2,1,~{RESET}/PC6*%
%TO.N,/RESET*%
X65299999Y-62399999D03*
D19*
%TO.P,U2,2,PD0*%
%TO.N,/PD0*%
X62759999Y-62399999D03*
%TO.P,U2,3,PD1*%
%TO.N,/PD1*%
X60219999Y-62399999D03*
%TO.P,U2,4,PD2*%
%TO.N,/RED_LEFT*%
X57679999Y-62399999D03*
%TO.P,U2,5,PD3*%
%TO.N,/RED_RIGHT*%
X55139999Y-62399999D03*
%TO.P,U2,6,PD4*%
%TO.N,/FRONTLIGHTS*%
X52599999Y-62399999D03*
%TO.P,U2,7,VCC*%
%TO.N,+5V*%
X50059999Y-62399999D03*
%TO.P,U2,8,GND*%
%TO.N,GND*%
X47519999Y-62399999D03*
%TO.P,U2,9,XTAL1/PB6*%
%TO.N,Net-(U2-XTAL1{slash}PB6)*%
X44979999Y-62399999D03*
%TO.P,U2,10,XTAL2/PB7*%
%TO.N,Net-(U2-XTAL2{slash}PB7)*%
X42439999Y-62399999D03*
%TO.P,U2,11,PD5*%
%TO.N,/DC_PWM*%
X39899999Y-62399999D03*
%TO.P,U2,12,PD6*%
%TO.N,/DC_IN1*%
X37359999Y-62399999D03*
%TO.P,U2,13,PD7*%
%TO.N,/DC_IN2*%
X34819999Y-62399999D03*
%TO.P,U2,14,PB0*%
%TO.N,/PB0*%
X32279999Y-62399999D03*
%TO.P,U2,15,PB1*%
%TO.N,/SERV_PWM*%
X32279999Y-70019999D03*
%TO.P,U2,16,PB2*%
%TO.N,+5V*%
X34819999Y-70019999D03*
%TO.P,U2,17,PB3*%
%TO.N,/MOSI*%
X37359999Y-70019999D03*
%TO.P,U2,18,PB4*%
%TO.N,/MISO*%
X39899999Y-70019999D03*
%TO.P,U2,19,PB5*%
%TO.N,/SCK*%
X42439999Y-70019999D03*
%TO.P,U2,20,AVCC*%
%TO.N,+5V*%
X44979999Y-70019999D03*
%TO.P,U2,21,AREF*%
X47519999Y-70019999D03*
%TO.P,U2,22,GND*%
%TO.N,GND*%
X50059999Y-70019999D03*
%TO.P,U2,23,PC0*%
%TO.N,/PC0*%
X52599999Y-70019999D03*
%TO.P,U2,24,PC1*%
%TO.N,/PC1*%
X55139999Y-70019999D03*
%TO.P,U2,25,PC2*%
%TO.N,/PC2*%
X57679999Y-70019999D03*
%TO.P,U2,26,PC3*%
%TO.N,/PC3*%
X60219999Y-70019999D03*
%TO.P,U2,27,PC4*%
%TO.N,/SDA*%
X62759999Y-70019999D03*
%TO.P,U2,28,PC5*%
%TO.N,/SCL*%
X65299999Y-70019999D03*
%TD*%
D11*
%TO.P,J2,1,Pin_1*%
%TO.N,GND*%
X79699999Y-70989999D03*
D12*
%TO.P,J2,2,Pin_2*%
%TO.N,+6V*%
X79699999Y-68449999D03*
%TO.P,J2,3,Pin_3*%
%TO.N,/SERV_PWM*%
X79699999Y-65909999D03*
%TD*%
D16*
%TO.P,J7,1,Pin_1*%
%TO.N,+6V*%
X69650000Y-93650000D03*
%TO.P,J7,2,Pin_2*%
%TO.N,GND*%
X74650000Y-93650000D03*
%TD*%
D20*
%TO.P,R13,1*%
%TO.N,/SDA*%
X63500000Y-80350000D03*
%TO.P,R13,2*%
%TO.N,+5V*%
X60400000Y-80350000D03*
%TD*%
D21*
%TO.P,SW2,1,1*%
%TO.N,/RESET*%
X68700000Y-69000000D03*
%TO.P,SW2,2,2*%
X68700000Y-64000000D03*
%TO.P,SW2,3,K*%
%TO.N,GND*%
X73700000Y-69000000D03*
%TO.P,SW2,4,A*%
X73700000Y-64100000D03*
%TD*%
D22*
%TO.N,+5V*%
X75399500Y-81550000D03*
X76400000Y-82900000D03*
X76400000Y-76700000D03*
%TO.N,GND*%
X44850000Y-72750000D03*
X41600000Y-72849500D03*
X77050000Y-66750000D03*
X46550000Y-66750000D03*
%TO.N,+5V*%
X35850000Y-82500000D03*
X33200000Y-96300000D03*
%TO.N,Net-(U2-XTAL2{slash}PB7)*%
X40649500Y-57900000D03*
%TO.N,+6V*%
X70850000Y-75800000D03*
%TO.N,/SERV_PWM*%
X32250000Y-65950000D03*
%TO.N,/DC_PWM*%
X39900000Y-54150000D03*
%TO.N,/DC_IN1*%
X37650000Y-53300000D03*
%TO.N,/PD0*%
X61500000Y-68100000D03*
%TO.N,/PD1*%
X60200000Y-73050000D03*
%TO.N,/RESET*%
X41500000Y-76850000D03*
%TO.N,/PB0*%
X33700000Y-67450500D03*
%TO.N,Net-(Q1-C)*%
X65700000Y-59100000D03*
X65700000Y-53900000D03*
%TO.N,Net-(Q1-B)*%
X59800000Y-59050000D03*
%TO.N,Net-(Q2-C)*%
X62400000Y-60350000D03*
%TO.N,Net-(Q2-B)*%
X55150000Y-57962000D03*
%TO.N,Net-(Q3-B)*%
X52600000Y-55300000D03*
%TD*%
D23*
%TO.N,+5V*%
X74049500Y-82900000D02*
X75399500Y-81550000D01*
X62950000Y-82900000D02*
X74049500Y-82900000D01*
X76400000Y-82900000D02*
X79670000Y-82900000D01*
X79670000Y-82900000D02*
X79700000Y-82870000D01*
X72950000Y-76700000D02*
X76400000Y-76700000D01*
D24*
%TO.N,GND*%
X79600000Y-86262500D02*
X74650000Y-91212500D01*
D25*
X53350000Y-89250000D02*
X70250000Y-89250000D01*
D23*
X77050000Y-66750000D02*
X53330000Y-66750000D01*
X53330000Y-66750000D02*
X46550000Y-66750000D01*
D25*
X42850000Y-93650000D02*
X48950000Y-93650000D01*
D24*
X40974500Y-73475000D02*
X37625000Y-73475000D01*
X35462500Y-86262500D02*
X42850000Y-93650000D01*
X50060000Y-70020000D02*
X47330000Y-72750000D01*
X41600000Y-72849500D02*
X40974500Y-73475000D01*
X47330000Y-72750000D02*
X44850000Y-72750000D01*
D25*
X48950000Y-93650000D02*
X53350000Y-89250000D01*
D23*
X53330000Y-66750000D02*
X50060000Y-70020000D01*
D24*
X33200000Y-86262500D02*
X35462500Y-86262500D01*
D25*
X70250000Y-89250000D02*
X74650000Y-93650000D01*
D24*
X74650000Y-91212500D02*
X74650000Y-93650000D01*
D23*
%TO.N,+5V*%
X33200000Y-96300000D02*
X33200000Y-94800000D01*
D24*
X50175000Y-51975000D02*
X50175000Y-62285000D01*
D23*
X72950000Y-75600000D02*
X72950000Y-76700000D01*
X69800000Y-76700000D02*
X72950000Y-76700000D01*
D24*
X51515000Y-50635000D02*
X50175000Y-51975000D01*
D23*
X62950000Y-82900000D02*
X60400000Y-80350000D01*
D24*
X60335000Y-49435000D02*
X59135000Y-50635000D01*
X34820000Y-71200000D02*
X34820000Y-70020000D01*
X50175000Y-62285000D02*
X50060000Y-62400000D01*
D23*
X60400000Y-80350000D02*
X38000000Y-80350000D01*
D24*
X32545000Y-73475000D02*
X34820000Y-71200000D01*
X59135000Y-50635000D02*
X51515000Y-50635000D01*
D23*
X38000000Y-80350000D02*
X35850000Y-82500000D01*
X68700000Y-75600000D02*
X69800000Y-76700000D01*
D24*
%TO.N,Net-(U2-XTAL1{slash}PB6)*%
X44980000Y-59200000D02*
X44980000Y-62400000D01*
X43680000Y-57900000D02*
X44980000Y-59200000D01*
%TO.N,Net-(U2-XTAL2{slash}PB7)*%
X42440000Y-62400000D02*
X42440000Y-59690500D01*
X42440000Y-59690500D02*
X40649500Y-57900000D01*
D23*
%TO.N,+6V*%
X79700000Y-68450000D02*
X77300000Y-70850000D01*
X70950000Y-70850000D02*
X70950000Y-75700000D01*
X77300000Y-70850000D02*
X70950000Y-70850000D01*
D24*
X72350000Y-96350000D02*
X69650000Y-93650000D01*
D23*
X70950000Y-75700000D02*
X70850000Y-75800000D01*
D24*
X78050000Y-96350000D02*
X72350000Y-96350000D01*
X79600000Y-94800000D02*
X78050000Y-96350000D01*
%TO.N,Net-(D1-A)*%
X33200000Y-91700000D02*
X33200000Y-89237500D01*
%TO.N,Net-(D3-A)*%
X79600000Y-91700000D02*
X79600000Y-89237500D01*
%TO.N,/Red_LED_3*%
X63900000Y-48550000D02*
X63585000Y-48235000D01*
X53915000Y-48235000D02*
X52715000Y-49435000D01*
X63585000Y-48235000D02*
X53915000Y-48235000D01*
%TO.N,/Red_LED_4*%
X60300000Y-53400000D02*
X56680000Y-53400000D01*
X56680000Y-53400000D02*
X55255000Y-51975000D01*
X63900000Y-57000000D02*
X60300000Y-53400000D01*
%TO.N,/SERV_PWM*%
X32290000Y-65910000D02*
X32250000Y-65950000D01*
X79700000Y-65910000D02*
X32290000Y-65910000D01*
%TO.N,/DC_PWM*%
X39900000Y-62400000D02*
X39900000Y-54150000D01*
X41950000Y-54150000D02*
X39900000Y-54150000D01*
X45300000Y-50800000D02*
X41950000Y-54150000D01*
%TO.N,/DC_IN2*%
X35140000Y-52400000D02*
X35140000Y-62080000D01*
X38620000Y-52400000D02*
X35140000Y-52400000D01*
X35140000Y-50800000D02*
X35140000Y-52400000D01*
X35140000Y-62080000D02*
X34820000Y-62400000D01*
X40220000Y-50800000D02*
X38620000Y-52400000D01*
%TO.N,/DC_IN1*%
X37360000Y-53590000D02*
X37360000Y-62400000D01*
X37650000Y-53300000D02*
X37360000Y-53590000D01*
X42760000Y-50800000D02*
X40260000Y-53300000D01*
X40260000Y-53300000D02*
X37650000Y-53300000D01*
%TO.N,/SCL*%
X79700000Y-77790000D02*
X66890000Y-77790000D01*
X66890000Y-77790000D02*
X65300000Y-76200000D01*
X65300000Y-76200000D02*
X65300000Y-70020000D01*
X74410000Y-72500000D02*
X79700000Y-77790000D01*
X72950000Y-72500000D02*
X74410000Y-72500000D01*
%TO.N,/SDA*%
X62760000Y-76190000D02*
X62760000Y-70020000D01*
X66880000Y-80330000D02*
X62750000Y-76200000D01*
X63500000Y-80350000D02*
X67280000Y-80350000D01*
X79700000Y-80330000D02*
X67300000Y-80330000D01*
X62750000Y-76200000D02*
X62760000Y-76190000D01*
X67300000Y-80330000D02*
X66880000Y-80330000D01*
X67280000Y-80350000D02*
X67300000Y-80330000D01*
D25*
%TO.N,+BATT*%
X53525000Y-98825000D02*
X43025000Y-98825000D01*
X56250000Y-96100000D02*
X53525000Y-98825000D01*
X43025000Y-98825000D02*
X37850000Y-93650000D01*
D24*
%TO.N,/PD0*%
X55490000Y-74750000D02*
X56690000Y-73550000D01*
X58400000Y-73550000D02*
X61500000Y-70450000D01*
X61500000Y-70450000D02*
X61500000Y-68100000D01*
X56690000Y-73550000D02*
X58400000Y-73550000D01*
%TO.N,/PC0*%
X46530000Y-73550000D02*
X48362894Y-73550000D01*
X45330000Y-74750000D02*
X46530000Y-73550000D01*
X48362894Y-73550000D02*
X51892894Y-70020000D01*
X51892894Y-70020000D02*
X52600000Y-70020000D01*
%TO.N,/PC1*%
X53610000Y-71550000D02*
X55140000Y-70020000D01*
X51070000Y-71550000D02*
X53610000Y-71550000D01*
X47870000Y-74750000D02*
X51070000Y-71550000D01*
%TO.N,/PC2*%
X53110000Y-72050000D02*
X55650000Y-72050000D01*
X55650000Y-72050000D02*
X57680000Y-70020000D01*
X50410000Y-74750000D02*
X53110000Y-72050000D01*
%TO.N,/PC3*%
X55150000Y-72550000D02*
X57690000Y-72550000D01*
X52950000Y-74750000D02*
X55150000Y-72550000D01*
X57690000Y-72550000D02*
X60220000Y-70020000D01*
%TO.N,/PD1*%
X58030000Y-74750000D02*
X58500000Y-74750000D01*
X58500000Y-74750000D02*
X60200000Y-73050000D01*
%TO.N,/RESET*%
X41500000Y-76850000D02*
X40665000Y-76015000D01*
X40665000Y-76015000D02*
X37625000Y-76015000D01*
X68700000Y-69000000D02*
X68700000Y-72500000D01*
X66900000Y-64000000D02*
X65300000Y-62400000D01*
X68700000Y-64000000D02*
X66900000Y-64000000D01*
%TO.N,/MOSI*%
X37360000Y-71200000D02*
X37360000Y-70020000D01*
X35085000Y-73475000D02*
X37360000Y-71200000D01*
%TO.N,/MISO*%
X32545000Y-76015000D02*
X30850000Y-74320000D01*
X30850000Y-68200000D02*
X38080000Y-68200000D01*
X30850000Y-74320000D02*
X30850000Y-68200000D01*
X38080000Y-68200000D02*
X39900000Y-70020000D01*
%TO.N,/PB0*%
X42790000Y-74750000D02*
X43590000Y-73950000D01*
X41500500Y-67450500D02*
X33700000Y-67450500D01*
X43590000Y-69540000D02*
X41500500Y-67450500D01*
X43590000Y-73950000D02*
X43590000Y-69540000D01*
%TO.N,Net-(Q1-C)*%
X65700000Y-53900000D02*
X65700000Y-59100000D01*
%TO.N,Net-(Q1-B)*%
X59800000Y-58950000D02*
X59800000Y-59050000D01*
X57700000Y-56850000D02*
X59800000Y-58950000D01*
%TO.N,Net-(Q2-C)*%
X65125000Y-58325000D02*
X63100000Y-60350000D01*
X63900000Y-53900000D02*
X65125000Y-55125000D01*
X65125000Y-55125000D02*
X65125000Y-58325000D01*
X63100000Y-60350000D02*
X62400000Y-60350000D01*
X63900000Y-53900000D02*
X63900000Y-51650000D01*
%TO.N,Net-(Q2-B)*%
X55150000Y-56850000D02*
X55150000Y-57962000D01*
%TO.N,Net-(Q3-B)*%
X52600000Y-55300000D02*
X52600000Y-56850000D01*
%TO.N,/FRONTLIGHTS*%
X52600000Y-62400000D02*
X52600000Y-59950000D01*
%TO.N,/RED_RIGHT*%
X55140000Y-62400000D02*
X55140000Y-59960000D01*
X55140000Y-59960000D02*
X55150000Y-59950000D01*
%TO.N,/RED_LEFT*%
X57680000Y-62400000D02*
X57680000Y-59970000D01*
X57680000Y-59970000D02*
X57700000Y-59950000D01*
%TD*%
M02*
