M48
; DRILL file {KiCad (7.0.0-0)} date Friday, 23. June 2023 at 15:16:17
; FORMAT={-:-/ absolute / inch / decimal}
; #@! TF.CreationDate,2023-06-23T15:16:17+02:00
; #@! TF.GenerationSoftware,Kicad,Pcbnew,(7.0.0-0)
; #@! TF.FileFunction,Plated,1,2,PTH
FMAT,2
INCH
; #@! TA.AperFunction,Plated,PTH,ViaDrill
T1C0.0157
; #@! TA.AperFunction,Plated,PTH,ComponentDrill
T2C0.0315
; #@! TA.AperFunction,Plated,PTH,ComponentDrill
T3C0.0335
; #@! TA.AperFunction,Plated,PTH,ComponentDrill
T4C0.0394
; #@! TA.AperFunction,Plated,PTH,ComponentDrill
T5C0.0453
; #@! TA.AperFunction,Plated,PTH,ComponentDrill
T6C0.0610
%
G90
G05
T1
X1.2697Y-2.5965
X1.3071Y-3.7913
X1.3268Y-2.6555
X1.4114Y-3.248
X1.4823Y-2.0984
X1.5709Y-2.1319
X1.6004Y-2.2795
X1.6339Y-3.0256
X1.6378Y-2.8681
X1.7657Y-2.8642
X1.8327Y-2.628
X2.0709Y-2.1772
X2.1713Y-2.282
X2.3543Y-2.3248
X2.3701Y-2.876
X2.4213Y-2.6811
X2.4567Y-2.376
X2.5866Y-2.122
X2.5866Y-2.3268
X2.7894Y-2.9843
X2.9685Y-3.2106
X3.0079Y-3.0197
X3.0079Y-3.2638
X3.0335Y-2.628
T2
X1.2709Y-2.4567
X1.2709Y-2.7567
X1.3709Y-2.4567
X1.3709Y-2.7567
X1.4709Y-2.4567
X1.4709Y-2.7567
X1.5276Y-2.2795
X1.5709Y-2.4567
X1.5709Y-2.7567
X1.6709Y-2.4567
X1.6709Y-2.7567
X1.7197Y-2.2795
X1.7709Y-2.4567
X1.7709Y-2.7567
X1.8709Y-2.4567
X1.8709Y-2.7567
X1.9709Y-2.4567
X1.9709Y-2.7567
X2.0709Y-2.4567
X2.0709Y-2.7567
X2.1709Y-2.4567
X2.1709Y-2.7567
X2.2709Y-2.4567
X2.2709Y-2.7567
X2.3709Y-2.4567
X2.3709Y-2.7567
X2.4709Y-2.4567
X2.4709Y-2.7567
X2.5709Y-2.4567
X2.5709Y-2.7567
T3
X2.7047Y-2.5197
X2.7047Y-2.7165
X2.9016Y-2.5236
X2.9016Y-2.7165
T4
X1.2813Y-2.8927
X1.2813Y-2.9927
X1.2835Y-2.0
X1.3813Y-2.8927
X1.3813Y-2.9927
X1.3835Y-2.0
X1.4813Y-2.8927
X1.4813Y-2.9927
X1.4835Y-2.0
X1.5835Y-2.0
X1.6835Y-2.0
X1.6846Y-2.9429
X1.7835Y-2.0
X1.7846Y-2.9429
X1.8846Y-2.9429
X1.9754Y-1.9463
X1.9754Y-2.0463
X1.9846Y-2.9429
X2.0754Y-1.9463
X2.0754Y-2.0463
X2.0846Y-2.9429
X2.1754Y-1.9463
X2.1754Y-2.0463
X2.1846Y-2.9429
X2.2754Y-1.9463
X2.2754Y-2.0463
X2.2846Y-2.9429
X2.3754Y-1.9463
X2.3754Y-2.0463
X3.1378Y-2.5949
X3.1378Y-2.6949
X3.1378Y-2.7949
X3.1378Y-2.9626
X3.1378Y-3.0626
X3.1378Y-3.1626
X3.1378Y-3.2626
T5
X1.4902Y-3.687
X1.687Y-3.687
X2.7421Y-3.687
X2.939Y-3.687
T6
X2.0295Y-3.7835
X2.2146Y-3.7835
X2.3996Y-3.7835
T0
M30
